<svg width="28" height="28" viewBox="0 0 28 28" fill="none" xmlns="http://www.w3.org/2000/svg">
<path d="M14.0002 2.3335C12.4681 2.3335 10.951 2.63526 9.53552 3.22157C8.12006 3.80787 6.83393 4.66723 5.75058 5.75058C3.56266 7.93851 2.3335 10.906 2.3335 14.0002C2.3335 19.1568 5.68183 23.5318 10.3135 25.0835C10.8968 25.1768 11.0835 24.8152 11.0835 24.5002V22.5285C7.85183 23.2285 7.1635 20.9652 7.1635 20.9652C6.62683 19.6118 5.8685 19.2502 5.8685 19.2502C4.80683 18.5268 5.95016 18.5502 5.95016 18.5502C7.11683 18.6318 7.73516 19.7518 7.73516 19.7518C8.75016 21.5252 10.4652 21.0002 11.1302 20.7202C11.2352 19.9618 11.5385 19.4485 11.8652 19.1568C9.27516 18.8652 6.55683 17.8618 6.55683 13.4168C6.55683 12.1218 7.00016 11.0835 7.7585 10.2552C7.64183 9.9635 7.2335 8.75016 7.87516 7.17516C7.87516 7.17516 8.85516 6.86016 11.0835 8.36516C12.0052 8.1085 13.0085 7.98016 14.0002 7.98016C14.9918 7.98016 15.9952 8.1085 16.9168 8.36516C19.1452 6.86016 20.1252 7.17516 20.1252 7.17516C20.7668 8.75016 20.3585 9.9635 20.2418 10.2552C21.0002 11.0835 21.4435 12.1218 21.4435 13.4168C21.4435 17.8735 18.7135 18.8535 16.1118 19.1452C16.5318 19.5068 16.9168 20.2185 16.9168 21.3035V24.5002C16.9168 24.8152 17.1035 25.1885 17.6985 25.0835C22.3302 23.5202 25.6668 19.1568 25.6668 14.0002C25.6668 12.4681 25.3651 10.951 24.7788 9.53552C24.1925 8.12006 23.3331 6.83393 22.2497 5.75058C21.1664 4.66723 19.8803 3.80787 18.4648 3.22157C17.0493 2.63526 15.5323 2.3335 14.0002 2.3335Z" fill="#F8FAFC"/>
</svg>
